<?xml version="1.0" standalone="no"?>
<!DOCTYPE svg PUBLIC "-//W3C//DTD SVG 20010904//EN"
 "http://www.w3.org/TR/2001/REC-SVG-20010904/DTD/svg10.dtd">
<svg version="1.0" xmlns="http://www.w3.org/2000/svg"
 width="384.000000pt" height="384.000000pt" viewBox="0 0 384.000000 384.000000"
 preserveAspectRatio="xMidYMid meet">
<metadata>
Created by potrace 1.14, written by Peter Selinger 2001-2017
</metadata>
<g transform="translate(0.000000,384.000000) scale(0.100000,-0.100000)"
fill="#000000" stroke="none">
<path d="M1828 3745 c-2 -1 -34 -6 -71 -9 -305 -28 -675 -182 -933 -390 -384
-308 -602 -692 -652 -1142 -9 -80 -8 -304 2 -379 46 -352 192 -664 429 -920
l74 -79 -29 -41 c-44 -61 -125 -151 -210 -236 -79 -78 -111 -105 -213 -183
-33 -25 -69 -53 -80 -62 -11 -8 -46 -34 -77 -56 -32 -23 -58 -44 -58 -48 0 -3
75 -23 168 -44 253 -58 250 -57 457 -61 316 -6 597 64 846 210 l64 37 100 -16
c283 -46 593 -39 820 18 456 114 848 387 1102 768 184 277 266 549 267 888 1
215 -6 289 -43 433 -100 386 -305 684 -661 960 -25 19 -171 112 -220 139 -153
86 -408 171 -580 195 -19 2 -62 8 -95 13 -56 7 -399 12 -407 5z m382 -441
c507 -76 935 -446 1069 -925 48 -173 61 -414 32 -584 -29 -169 -103 -350 -207
-506 -62 -94 -236 -269 -334 -336 -125 -85 -339 -182 -440 -200 -14 -2 -41 -8
-60 -13 -94 -24 -321 -33 -443 -18 -49 7 -185 37 -237 53 -9 3 -39 -17 -70
-45 -181 -165 -432 -275 -694 -305 l-59 -7 85 103 c110 134 177 237 245 377
l55 113 -79 79 c-218 214 -355 493 -388 788 -7 56 -6 241 0 292 21 164 73 332
143 460 175 324 501 570 867 654 163 38 350 45 515 20z"/>
</g>
</svg>
