<?xml version="1.0" encoding="UTF-8" standalone="no"?>
<!-- Created with Inkscape (http://www.inkscape.org/) -->

<svg
   width="210mm"
   height="297mm"
   viewBox="0 0 210 297"
   version="1.1"
   id="svg3293"
   sodipodi:docname="logo.svg"
   inkscape:export-filename="/home/mauriziopinotti/Projects/easyhour/myopinionrocks/logo-myopinionrocks.png"
   inkscape:export-xdpi="96"
   inkscape:export-ydpi="96"
   inkscape:version="1.1.2 (0a00cf5339, 2022-02-04)"
   xmlns:inkscape="http://www.inkscape.org/namespaces/inkscape"
   xmlns:sodipodi="http://sodipodi.sourceforge.net/DTD/sodipodi-0.dtd"
   xmlns="http://www.w3.org/2000/svg"
   xmlns:svg="http://www.w3.org/2000/svg">
  <sodipodi:namedview
     id="namedview3295"
     pagecolor="#ffffff"
     bordercolor="#666666"
     borderopacity="1.0"
     inkscape:pageshadow="2"
     inkscape:pageopacity="0.0"
     inkscape:pagecheckerboard="0"
     inkscape:document-units="mm"
     showgrid="false"
     inkscape:zoom="5.1329109"
     inkscape:cx="229.30458"
     inkscape:cy="467.66836"
     inkscape:window-width="1920"
     inkscape:window-height="1020"
     inkscape:window-x="1920"
     inkscape:window-y="28"
     inkscape:window-maximized="1"
     inkscape:current-layer="layer1" />
  <defs
     id="defs3290" />
  <g
     inkscape:label="Layer 1"
     inkscape:groupmode="layer"
     id="layer1">
    <text
       xml:space="preserve"
       style="font-style:normal;font-variant:normal;font-weight:normal;font-stretch:normal;font-size:7.05556px;line-height:1.25;font-family:Gubbi;-inkscape-font-specification:Gubbi;fill:#000000;fill-opacity:1;stroke:none;stroke-width:0.264583"
       x="30.378565"
       y="115.26292"
       id="text4971"><tspan
         sodipodi:role="line"
         id="tspan4969"
         style="font-style:normal;font-variant:normal;font-weight:normal;font-stretch:normal;font-size:7.05556px;font-family:Gubbi;-inkscape-font-specification:Gubbi;fill:#515b63;fill-opacity:1;stroke-width:0.264583"
         x="30.378565"
         y="115.26292">My   pinionR  cks</tspan></text>
    <path
       id="Path_7670"
       data-name="Path 7670"
       d="m 46.55314,110.81036 a 3.1779312,3.0762294 0 0 0 -2.301835,-0.89753 3.2149167,3.1120312 0 0 0 -2.311596,0.89753 2.9894079,2.8937392 0 0 0 -0.961882,2.16303 3.0022499,2.9061703 0 0 0 0.914621,2.12723 c -0.04879,0.0688 -0.09914,0.136 -0.151025,0.19889 a 4.1056518,3.9742606 0 0 1 -0.392713,0.40924 c -0.05318,0.0483 -0.09761,0.0859 -0.128422,0.11034 -0.03081,0.0246 -0.04366,0.0346 -0.04366,0.0346 l -0.490573,0.3697 0.602299,0.13699 a 2.6359903,2.5516319 0 0 0 0.556582,0.0514 h 0.01874 a 2.8591878,2.7676866 0 0 0 1.575225,-0.45249 3.4897398,3.3780593 0 0 0 0.813167,0.0898 3.1743356,3.0727488 0 0 0 2.297985,-0.90077 3.0235681,2.9268063 0 0 0 0.953405,-2.17522 3.0050752,2.9089052 0 0 0 -0.950325,-2.16303 m -2.311596,4.50011 a 2.3010658,2.2274258 0 0 1 -0.760258,-0.12655 2.093022,2.02604 0 0 1 -0.779007,0.50619 2.3778621,2.3017645 0 0 1 -0.659062,0.14047 c 0.04855,-0.053 0.09785,-0.10941 0.147943,-0.16956 0.05008,-0.0601 0.09863,-0.12431 0.147428,-0.18995 a 3.1399183,3.0394329 0 0 0 0.390403,-0.70509 2.4032896,2.3263783 0 0 1 -0.83911,-1.7722 2.3526914,2.2773993 0 1 1 4.704611,0 2.372982,2.2970406 0 0 1 -2.352948,2.31594"
       fill="#e93236"
       style="stroke-width:0.252701;font-variation-settings:normal;opacity:1;vector-effect:none;fill:#e93236;fill-opacity:1;stroke-linecap:butt;stroke-linejoin:miter;stroke-miterlimit:4;stroke-dasharray:none;stroke-dashoffset:0;stroke-opacity:1;-inkscape-stroke:none;stop-color:#000000;stop-opacity:1" />
    <path
       id="Path_7670-1"
       data-name="Path 7670"
       d="m 77.806667,111.84551 a 2.1837689,2.1837689 0 0 0 -1.581745,-0.63715 2.2091842,2.2091842 0 0 0 -1.588452,0.63715 2.0542219,2.0542219 0 0 0 -0.660973,1.5355 2.0630466,2.0630466 0 0 0 0.628497,1.51009 c -0.03353,0.0489 -0.06813,0.0966 -0.103779,0.14119 a 2.8212678,2.8212678 0 0 1 -0.26986,0.29052 c -0.03654,0.0343 -0.06708,0.0609 -0.08825,0.0783 -0.02117,0.0175 -0.03,0.0246 -0.03,0.0246 l -0.337105,0.26245 0.413879,0.0972 a 1.8113651,1.8113651 0 0 0 0.382466,0.0365 h 0.01288 a 1.964739,1.964739 0 0 0 1.082443,-0.32121 2.3980335,2.3980335 0 0 0 0.558781,0.0638 2.1812981,2.1812981 0 0 0 1.579099,-0.63944 2.0776957,2.0776957 0 0 0 0.655148,-1.54415 2.064988,2.064988 0 0 0 -0.653032,-1.53551 m -1.588452,3.19456 a 1.5812161,1.5812161 0 0 1 -0.522424,-0.0898 1.4382553,1.4382553 0 0 1 -0.535307,0.35934 1.633988,1.633988 0 0 1 -0.452886,0.0997 c 0.03336,-0.0376 0.06724,-0.0777 0.101661,-0.12037 0.03442,-0.0427 0.06777,-0.0882 0.101308,-0.13484 a 2.1576477,2.1576477 0 0 0 0.268272,-0.50053 1.6514609,1.6514609 0 0 1 -0.576609,-1.25806 1.6166915,1.6166915 0 1 1 3.232853,0 1.6306346,1.6306346 0 0 1 -1.616868,1.64406"
       fill="#e93236"
       style="stroke-width:0.176495"
       inkscape:export-filename="/home/mauriziopinotti/Projects/easyhour/myopinionrocks/myopinionrocks_app/assets/images/logo.png"
       inkscape:export-xdpi="96"
       inkscape:export-ydpi="96" />
  </g>
</svg>
